#!OML:ASF F:\VICON\USERDATA\INSTALL\rory3\rory3.ASF
:FULLY-SPECIFIED
:DEGREES
177
root -8.46341 17.8029 0.146124 -17.9452 -65.7623 15.5536
lowerback 10.9781 1.74815 -1.40531
upperback 0.779693 2.19396 1.22052
thorax -5.4433 1.11696 1.72934
lowerneck -16.5316 3.48889 -8.20216
upperneck 41.6859 6.188 2.79048
head 17.9349 1.19176 3.83791
rclavicle 1.57537e-014 -2.06736e-014
rhumerus -39.8691 -20.1891 -65.5619
rradius 35.4197
rwrist 4.04783
rhand -16.5453 9.20069
rfingers 7.12502
rthumb 9.67406 -20.5572
lclavicle 1.57537e-014 -2.06736e-014
lhumerus -35.891 3.69286 85.509
lradius 37.0027
lwrist -2.72352
lhand -17.6252 24.3528
lfingers 7.12502
lthumb 8.63208 54.1563
rfemur -3.41013 6.69414 1.40072
rtibia 42.837
rfoot -6.74366 -16.3305
rtoes 13.703
lfemur 0.706625 -3.21035 -21.995
ltibia 14.0121
lfoot -6.98464 -3.79534
ltoes -22.9617
178
root -8.45775 17.8033 0.214201 -17.588 -65.4438 15.1429
lowerback 11.0095 1.67384 -1.32336
upperback 0.818109 2.1 1.14505
thorax -5.41041 1.06713 1.61871
lowerneck -16.7412 3.51282 -8.03925
upperneck 41.7454 6.22432 2.73813
head 18.0329 1.21884 3.80456
rclavicle -7.30037e-014 -1.11319e-014
rhumerus -39.8817 -20.8575 -65.6784
rradius 35.2164
rwrist 5.02064
rhand -16.0528 9.57404
rfingers 7.12502
rthumb 10.1492 -20.1612
lclavicle -7.30037e-014 -1.11319e-014
lhumerus -35.6971 3.60881 85.0877
lradius 37.2408
lwrist -2.38557
lhand -16.8405 24.2702
lfingers 7.12502
lthumb 9.38921 54.041
rfemur -3.86338 6.93548 1.86694
rtibia 43.4365
rfoot -8.01205 -14.1963
rtoes 10.5853
lfemur 0.44443 -3.11132 -22.1346
ltibia 14.6411
lfoot -7.33479 -4.09064
ltoes -22.3392
179
root -8.45244 17.8018 0.28129 -17.2594 -65.1226 14.7658
lowerback 11.0098 1.62469 -1.32198
upperback 0.861042 2.03321 1.12947
thorax -5.36213 1.03321 1.61271
lowerneck -16.7877 3.51765 -8.13762
upperneck 41.7202 6.19691 2.93607
head 18.0135 1.22547 3.91017
rclavicle 7.85199e-014 3.18055e-015
rhumerus -39.8588 -21.3147 -65.7843
rradius 35.0279
rwrist 5.80052
rhand -15.6741 10.0451
rfingers 7.12502
rthumb 10.5146 -19.6719
lclavicle 7.85199e-014 3.18055e-015
lhumerus -35.462 3.70273 84.7177
lradius 37.4064
lwrist -2.05395
lhand -16.0832 24.087
lfingers 7.12502
lthumb 10.1199 53.8237
rfemur -4.33438 7.14357 2.32863
rtibia 43.975
rfoot -9.44025 -11.9008
rtoes 9.54471
lfemur 0.139261 -3.28695 -22.3358
ltibia 15.3626
lfoot -7.66486 -4.01531
ltoes -22.1587
180
root -8.43908 17.8058 0.329257 -16.0499 -64.6434 13.5646
lowerback 11.1487 1.5221 -1.22695
upperback 0.792474 1.91755 1.30058
thorax -5.51018 0.977307 1.75273
lowerneck -16.8007 3.46823 -8.30776
upperneck 41.6348 6.15912 3.01516
head 17.9582 1.20398 3.96659
rclavicle 3.598e-014 -2.22639e-014
rhumerus -39.8762 -21.4712 -65.8687
rradius 34.9156
rwrist 6.28986
rhand -15.3811 10.3244
rfingers 7.12502
rthumb 10.7972 -19.3781
lclavicle 3.598e-014 -2.22639e-014
lhumerus -35.2606 4.1576 84.4176
lradius 37.5499
lwrist -2.06658
lhand -15.4848 23.9
lfingers 7.12502
lthumb 10.6972 53.6076
rfemur -4.90725 7.28869 3.29911
rtibia 44.4613
rfoot -10.6269 -9.82454
rtoes 8.13893
lfemur -0.39704 -3.42704 -22.0928
ltibia 16.0912
lfoot -8.03758 -4.28192
ltoes -21.8401
181
root -8.43008 17.8057 0.381739 -14.938 -64.3311 12.4198
lowerback 11.2388 1.48237 -0.988856
upperback 0.746334 1.90172 1.43127
thorax -5.60522 0.965894 1.75562
lowerneck -16.7905 3.40611 -8.41168
upperneck 41.5398 6.11582 2.99639
head 17.9021 1.17696 3.96361
rclavicle 1.73937e-014 2.38542e-014
rhumerus -39.9791 -21.5979 -65.9794
rradius 34.8237
rwrist 6.75315
rhand -15.0389 10.623
rfingers 7.12502
rthumb 11.1272 -19.0619
lclavicle 1.73937e-014 2.38542e-014
lhumerus -35.1615 4.4087 84.1246
lradius 37.7624
lwrist -2.09349
lhand -16.6904 23.7087
lfingers 7.12502
lthumb 9.53411 53.473
rfemur -5.48652 7.4932 4.31466
rtibia 44.8989
rfoot -11.6836 -7.97311
rtoes 5.52275
lfemur -0.822445 -3.69816 -21.8452
ltibia 16.7823
lfoot -8.36951 -4.27889
ltoes -21.5315
182
root -8.42433 17.8068 0.439354 -14.1579 -63.9739 11.5704
lowerback 11.2838 1.41246 -0.741136
upperback 0.752846 1.83879 1.4189
thorax -5.61261 0.928369 1.6122
lowerneck -16.7712 3.39917 -8.30499
upperneck 41.4181 6.07506 2.9848
head 17.8338 1.1877 3.92623
rclavicle -1.74434e-014 -1.90833e-014
rhumerus -40.1836 -21.9006 -66.1575
rradius 34.8323
rwrist 7.29889
rhand -14.3847 11.1652
rfingers 7.12502
rthumb 11.7581 -18.4847
lclavicle -1.74434e-014 -1.90833e-014
lhumerus -35.0787 4.44485 83.6888
lradius 38.0708
lwrist -2.02637
lhand -21.2937 24.1011
lfingers 7.12502
lthumb 5.09079 54.0199
rfemur -5.99068 7.61032 5.14482
rtibia 45.2971
rfoot -13.0296 -6.14165
rtoes 4.17096
lfemur -1.09475 -4.17048 -21.7708
ltibia 17.3732
lfoot -8.58419 -4.13002
ltoes -21.2529
183
root -8.4145 17.802 0.495782 -14.0181 -63.3173 11.2742
lowerback 11.5119 1.29035 -0.759663
upperback 0.821464 1.66737 1.34374
thorax -5.65986 0.842695 1.56803
lowerneck -16.8328 3.36031 -8.20577
upperneck 41.2158 6.03087 2.90518
head 17.7459 1.19176 3.85805
rclavicle -1.44616e-014 3.18055e-015
rhumerus -40.2377 -21.8942 -66.5375
rradius 34.9711
rwrist 7.61511
rhand -13.778 11.0418
rfingers 7.12502
rthumb 12.3431 -18.5738
lclavicle -1.44616e-014 3.18055e-015
lhumerus -34.8469 4.73973 83.2224
lradius 38.2556
lwrist -1.92976
lhand -20.8564 24.7647
lfingers 7.12502
lthumb 5.513 54.673
rfemur -6.30014 7.45996 5.65564
rtibia 45.6532
rfoot -14.3474 -4.28297
rtoes 1.52904
lfemur -1.20025 -4.68601 -22.0204
ltibia 17.8502
lfoot -8.71393 -4.20583
ltoes -20.5826
184
root -8.41983 17.7917 0.537882 -14.651 -63.0623 11.9165
lowerback 11.5256 1.41482 -1.45598
upperback 0.91215 1.73946 1.30132
thorax -5.59435 0.89362 1.90537
lowerneck -16.9402 3.27884 -8.29838
upperneck 41.1258 5.95112 2.93457
head 17.7247 1.15789 3.87468
rclavicle -2.53947e-014 3.49861e-014
rhumerus -40.1145 -21.315 -67.2129
rradius 35.3979
rwrist 7.40624
rhand -13.3762 9.23016
rfingers 7.12502
rthumb 12.7306 -20.3618
lclavicle -2.53947e-014 3.49861e-014
lhumerus -34.5476 5.16485 82.8464
lradius 38.331
lwrist -1.79938
lhand -20.1418 25.1541
lfingers 7.12502
lthumb 6.20296 55.0433
rfemur -6.8015 7.58223 5.88822
rtibia 45.9438
rfoot -15.3887 -2.66042
rtoes -2.48674
lfemur -1.26465 -4.65121 -22.5471
ltibia 18.2703
lfoot -8.934 -4.28864
ltoes -20.2921
185
root -8.42174 17.7813 0.586784 -14.8928 -62.6673 12.0927
lowerback 11.6034 1.45422 -1.89412
upperback 0.958769 1.73533 1.3304
thorax -5.60276 0.901959 2.18315
lowerneck -17.0345 3.23311 -8.42543
upperneck 41.1923 5.93689 2.96154
head 17.7842 1.13187 3.91468
rclavicle 2.08724e-014 -6.36111e-015
rhumerus -39.9277 -20.0254 -68.3983
rradius 35.4178
rwrist 3.64407
rhand -15.3019 9.781
rfingers 7.12502
rthumb 10.8736 -19.9175
lclavicle 2.08724e-014 -6.36111e-015
lhumerus -34.4022 5.65345 82.5616
lradius 38.4271
lwrist -1.71504
lhand -20.3132 25.4702
lfingers 7.12502
lthumb 6.03742 55.3642
rfemur -7.15652 7.4518 6.29827
rtibia 46.1587
rfoot -16.5292 -1.14942
rtoes -4.62709
lfemur -1.33024 -4.74392 -22.9156
ltibia 18.7317
lfoot -9.21932 -4.374
ltoes -20.8103
186
root -8.4221 17.7794 0.634749 -14.1775 -62.3448 11.3157
lowerback 11.5799 1.42048 -1.78498
upperback 0.990784 1.70905 1.41472
thorax -5.55391 0.886361 2.21518
lowerneck -17.1141 3.19199 -8.54086
upperneck 41.1749 5.90534 3.03266
head 17.7895 1.11422 3.96518
rclavicle 7.35503e-015 4.77083e-015
rhumerus -39.9218 -19.4713 -68.9466
rradius 35.5812
rwrist 3.209
rhand -14.9984 9.76832
rfingers 7.12502
rthumb 11.1663 -19.9146
lclavicle 7.35503e-015 4.77083e-015
lhumerus -34.1989 6.12841 82.1739
lradius 38.507
lwrist -1.36059
lhand -21.0519 25.3506
lfingers 7.12502
lthumb 5.32427 55.2638
rfemur -7.59015 7.31537 7.26154
rtibia 46.3005
rfoot -17.6704 0.0791469
rtoes -6.14082
lfemur -1.53567 -4.90971 -22.7724
ltibia 19.1913
lfoot -9.36683 -4.52518
ltoes -20.8791
187
root -8.42397 17.7788 0.675791 -13.5135 -62.0093 10.6375
lowerback 11.5254 1.38717 -1.76999
upperback 1.01638 1.67094 1.48345
thorax -5.49618 0.867155 2.28636
lowerneck -17.069 3.1461 -8.65916
upperneck 40.9829 5.85352 3.09447
head 17.6632 1.10189 3.99401
rclavicle -1.09332e-015 0
rhumerus -39.8492 -18.5927 -69.7116
rradius 35.7511
rwrist 2.07194
rhand -15.3777 9.72513
rfingers 7.12502
rthumb 10.8004 -19.9772
lclavicle -1.09332e-015 0
lhumerus -33.9367 6.76423 81.7313
lradius 38.5228
lwrist -1.19949
lhand -21.4564 25.1278
lfingers 7.12502
lthumb 4.93367 55.0504
rfemur -8.08664 7.17397 8.22944
rtibia 46.3909
rfoot -18.7251 0.974534
rtoes -8.59959
lfemur -1.83248 -5.13368 -22.6538
ltibia 19.7102
lfoot -9.5518 -4.65574
ltoes -20.7568
